REM DIRINDEX 1\2,1\4,1\5,1\6,1\3\7,1\3\8,1\3\9
REM DIRNAME cjc028,folder01,folder02,folder03,folder04,folder05,folder06,folder07,folder08
TITLE ""
FILE "Disc1Track02.mp3" MP3
  TRACK 01 AUDIO
    TITLE "6:cjc028_0002"
    INDEX 01 00:00:00
  TRACK 02 AUDIO
    TITLE "2:cjc028_0003"
    INDEX 01 00:05:03
  TRACK 03 AUDIO
    TITLE "2:cjc028_0004"
    INDEX 01 00:06:61
  TRACK 04 AUDIO
    TITLE "2:cjc028_0005"
    INDEX 01 00:08:03
  TRACK 05 AUDIO
    TITLE "2:cjc028_0006"
    INDEX 01 00:09:28
  TRACK 06 AUDIO
    TITLE "2:cjc028_0007"
    INDEX 01 00:11:03
  TRACK 07 AUDIO
    TITLE "2:cjc028_0008"
    INDEX 01 00:12:26
  TRACK 08 AUDIO
    TITLE "2:cjc028_0009"
    INDEX 01 00:13:39
  TRACK 09 AUDIO
    TITLE "2:cjc028_0010"
    INDEX 01 00:14:45
  TRACK 10 AUDIO
    TITLE "2:cjc028_0011"
    INDEX 01 00:16:20
  TRACK 11 AUDIO
    TITLE "2:cjc028_0012"
    INDEX 01 00:17:51
  TRACK 12 AUDIO
    TITLE "2:cjc028_0013"
    INDEX 01 00:18:56
  TRACK 13 AUDIO
    TITLE "2:cjc028_0014"
    INDEX 01 00:19:73
  TRACK 14 AUDIO
    TITLE "2:cjc028_0015"
    INDEX 01 00:21:60
  TRACK 15 AUDIO
    TITLE "2:cjc028_0016"
    INDEX 01 00:23:30
  TRACK 16 AUDIO
    TITLE "2:cjc028_0017"
    INDEX 01 00:24:35
  TRACK 17 AUDIO
    TITLE "2:cjc028_0018"
    INDEX 01 00:25:50
  TRACK 18 AUDIO
    TITLE "2:cjc028_0019"
    INDEX 01 00:27:26
  TRACK 19 AUDIO
    TITLE "2:cjc028_0020"
    INDEX 01 00:29:07
  TRACK 20 AUDIO
    TITLE "2:cjc028_0021"
    INDEX 01 00:30:20
  TRACK 21 AUDIO
    TITLE "2:cjc028_0022"
    INDEX 01 00:31:43
  TRACK 22 AUDIO
    TITLE "2:cjc028_0023"
    INDEX 01 00:33:24
  TRACK 23 AUDIO
    TITLE "2:cjc028_0024"
    INDEX 01 00:34:69
  TRACK 24 AUDIO
    TITLE "2:cjc028_0025"
    INDEX 01 00:36:01
  TRACK 25 AUDIO
    TITLE "2:cjc028_0026"
    INDEX 01 00:37:08
  TRACK 26 AUDIO
    TITLE "2:cjc028_0027"
    INDEX 01 00:38:51
  TRACK 27 AUDIO
    TITLE "2:cjc028_0028"
    INDEX 01 00:40:24
  TRACK 28 AUDIO
    TITLE "2:cjc028_0029"
    INDEX 01 00:41:53
  TRACK 29 AUDIO
    TITLE "2:cjc028_0030"
    INDEX 01 00:42:68
  TRACK 30 AUDIO
    TITLE "2:cjc028_0031"
    INDEX 01 00:44:44
  TRACK 31 AUDIO
    TITLE "2:cjc028_0032"
    INDEX 01 00:46:21
  TRACK 32 AUDIO
    TITLE "2:cjc028_0033"
    INDEX 01 00:47:28
  TRACK 33 AUDIO
    TITLE "2:cjc028_0034"
    INDEX 01 00:48:40
  TRACK 34 AUDIO
    TITLE "2:cjc028_0035"
    INDEX 01 00:50:19
  TRACK 35 AUDIO
    TITLE "2:cjc028_0036"
    INDEX 01 00:51:71
  TRACK 36 AUDIO
    TITLE "2:cjc028_0037"
    INDEX 01 00:53:13
  TRACK 37 AUDIO
    TITLE "2:cjc028_0038"
    INDEX 01 00:54:32
  TRACK 38 AUDIO
    TITLE "2:cjc028_0039"
    INDEX 01 00:56:16
  TRACK 39 AUDIO
    TITLE "2:cjc028_0040"
    INDEX 01 00:57:62
  TRACK 40 AUDIO
    TITLE "2:cjc028_0041"
    INDEX 01 00:59:04
  TRACK 41 AUDIO
    TITLE "2:cjc028_0042"
    INDEX 01 01:00:25
  TRACK 42 AUDIO
    TITLE "2:cjc028_0043"
    INDEX 01 01:02:05
  TRACK 43 AUDIO
    TITLE "2:cjc028_0044"
    INDEX 01 01:03:45
  TRACK 44 AUDIO
    TITLE "2:cjc028_0045"
    INDEX 01 01:04:54
  TRACK 45 AUDIO
    TITLE "2:cjc028_0046"
    INDEX 01 01:05:68
  TRACK 46 AUDIO
    TITLE "2:cjc028_0047"
    INDEX 01 01:07:37
  TRACK 47 AUDIO
    TITLE "2:cjc028_0048"
    INDEX 01 01:08:60
  TRACK 48 AUDIO
    TITLE "2:cjc028_0049"
    INDEX 01 01:10:06
  TRACK 49 AUDIO
    TITLE "2:cjc028_0050"
    INDEX 01 01:11:31
  TRACK 50 AUDIO
    TITLE "2:cjc028_0051"
    INDEX 01 01:13:08
  TRACK 51 AUDIO
    TITLE "2:cjc028_0052"
    INDEX 01 01:14:70
  TRACK 52 AUDIO
    TITLE "2:cjc028_0053"
    INDEX 01 01:16:03
  TRACK 53 AUDIO
    TITLE "2:cjc028_0054"
    INDEX 01 01:17:20
  TRACK 54 AUDIO
    TITLE "2:cjc028_0055"
    INDEX 01 01:19:03
  TRACK 55 AUDIO
    TITLE "2:cjc028_0056"
    INDEX 01 01:20:36
  TRACK 56 AUDIO
    TITLE "2:cjc028_0057"
    INDEX 01 01:21:47
  TRACK 57 AUDIO
    TITLE "2:cjc028_0058"
    INDEX 01 01:22:56
  TRACK 58 AUDIO
    TITLE "2:cjc028_0059"
    INDEX 01 01:24:26
  TRACK 59 AUDIO
    TITLE "2:cjc028_0060"
    INDEX 01 01:25:43
  TRACK 60 AUDIO
    TITLE "2:cjc028_0061"
    INDEX 01 01:26:56
  TRACK 61 AUDIO
    TITLE "2:cjc028_0062"
    INDEX 01 01:27:65
  TRACK 62 AUDIO
    TITLE "2:cjc028_0063"
    INDEX 01 01:29:45
  TRACK 63 AUDIO
    TITLE "2:cjc028_0064"
    INDEX 01 01:31:20
  TRACK 64 AUDIO
    TITLE "2:cjc028_0065"
    INDEX 01 01:32:39
  TRACK 65 AUDIO
    TITLE "2:cjc028_0066"
    INDEX 01 01:33:62
  TRACK 66 AUDIO
    TITLE "2:cjc028_0067"
    INDEX 01 01:35:35
  TRACK 67 AUDIO
    TITLE "2:cjc028_0068"
    INDEX 01 01:37:05
  TRACK 68 AUDIO
    TITLE "2:cjc028_0069"
    INDEX 01 01:38:12
  TRACK 69 AUDIO
    TITLE "2:cjc028_0070"
    INDEX 01 01:39:23
  TRACK 70 AUDIO
    TITLE "2:cjc028_0071"
    INDEX 01 01:41:01
  TRACK 71 AUDIO
    TITLE "2:cjc028_0072"
    INDEX 01 01:42:43
  TRACK 72 AUDIO
    TITLE "2:cjc028_0073"
    INDEX 01 01:43:54
  TRACK 73 AUDIO
    TITLE "2:cjc028_0074"
    INDEX 01 01:44:68
  TRACK 74 AUDIO
    TITLE "2:cjc028_0075"
    INDEX 01 01:46:47
  TRACK 75 AUDIO
    TITLE "2:cjc028_0076"
    INDEX 01 01:48:11
  TRACK 76 AUDIO
    TITLE "2:cjc028_0077"
    INDEX 01 01:49:20
  TRACK 77 AUDIO
    TITLE "2:cjc028_0078"
    INDEX 01 01:50:27
  TRACK 78 AUDIO
    TITLE "2:cjc028_0079"
    INDEX 01 01:51:74
  TRACK 79 AUDIO
    TITLE "2:cjc028_0080"
    INDEX 01 01:53:35
  TRACK 80 AUDIO
    TITLE "2:cjc028_0081"
    INDEX 01 01:54:44
  TRACK 81 AUDIO
    TITLE "2:cjc028_0082"
    INDEX 01 01:55:56
  TRACK 82 AUDIO
    TITLE "2:cjc028_0083"
    INDEX 01 01:57:31
  TRACK 83 AUDIO
    TITLE "2:cjc028_0084"
    INDEX 01 01:59:01
  TRACK 84 AUDIO
    TITLE "2:cjc028_0085"
    INDEX 01 02:00:14
  TRACK 85 AUDIO
    TITLE "2:cjc028_0086"
    INDEX 01 02:01:17
  TRACK 86 AUDIO
    TITLE "2:cjc028_0087"
    INDEX 01 02:02:69
  TRACK 87 AUDIO
    TITLE "2:cjc028_0088"
    INDEX 01 02:04:35
  TRACK 88 AUDIO
    TITLE "2:cjc028_0089"
    INDEX 01 02:05:42
  TRACK 89 AUDIO
    TITLE "2:cjc028_0090"
    INDEX 01 02:06:54
  TRACK 90 AUDIO
    TITLE "2:cjc028_0091"
    INDEX 01 02:08:33
  TRACK 91 AUDIO
    TITLE "2:cjc028_0092"
    INDEX 01 02:10:02
  TRACK 92 AUDIO
    TITLE "2:cjc028_0093"
    INDEX 01 02:11:19
  TRACK 93 AUDIO
    TITLE "2:cjc028_0094"
    INDEX 01 02:12:27
  TRACK 94 AUDIO
    TITLE "0:"
    INDEX 01 02:14:06
